# OBJ exported from Easy3D
v 5.0024099350 -40.8816223145 0.0000000000
v 2.2638955116 -49.8278427124 0.0000000000
v -3.4179649353 -49.4464836121 0.0000000000
v -6.3188104630 -41.1378707886 0.0000000000
v -6.1015448570 -46.4359664917 0.0000000000
v -17.9474315643 -46.7224349976 0.0000000000
v -19.8303108215 -44.6598472595 0.0000000000
v -7.6551022530 -33.2032775879 0.0000000000
v -8.5110721588 -25.1932201385 0.0000000000
v -17.3736019135 -24.2692604065 0.0000000000
v -14.5055437088 -28.3808765411 0.0000000000
v -21.1800003052 -28.3616409302 0.0000000000
v -19.2863082886 -24.5981597900 0.0000000000
v -35.8378829956 -22.4272460938 0.0000000000
v -36.1170043945 -26.6134929657 0.0000000000
v -36.5080108643 -27.7599010468 0.0000000000
v -39.0581741333 -27.2788352966 0.0000000000
v -37.2960243225 -6.7362332344 0.0000000000
v -35.9686584473 -6.6794381142 0.0000000000
v -35.6313247681 -18.1626071930 0.0000000000
v -21.1017398834 -5.4876589775 0.0000000000
v -21.2152938843 8.7566242218 0.0000000000
v -17.6337661743 8.6885747910 0.0000000000
v -15.7410745621 -0.0094823614 0.0000000000
v -0.4157067537 50.0492134094 0.0000000000
v 13.4188146591 -1.2423452139 0.0000000000
v 16.1734142303 9.9397535324 0.0000000000
v 19.7103557587 9.2304859161 0.0000000000
v 20.0605106354 -4.9455332756 0.0000000000
v 34.2229423523 -18.1401329041 0.0000000000
v 34.8122100830 -6.7948174477 0.0000000000
v 35.7400588989 -7.1619548798 0.0000000000
v 37.5575561523 -26.8861560822 0.0000000000
v 35.7901992798 -27.6323604584 0.0000000000
v 33.5355033875 -25.2869586945 0.0000000000
v 34.0183219910 -22.4411220551 0.0000000000
v 18.6526889801 -24.7809886932 0.0000000000
v 20.5977973938 -28.6638259888 0.0000000000
v 13.8274230957 -28.0938549042 0.0000000000
v 16.2733173370 -24.1904640198 0.0000000000
v 7.3966684341 -24.9321880341 0.0000000000
v 6.3096756935 -33.3069381714 0.0000000000
v 18.2928981781 -44.5669593811 0.0000000000
v 17.0166149139 -47.0694274902 0.0000000000
v 6.1649532318 -47.2569694519 0.0000000000
vn 0.0000000000 0.0000000000 -1.0000000000
vn 0.0000000000 0.0000000000 -0.9999999404
vn 0.0000000000 0.0000000000 -1.0000000000
vn 0.0000000000 0.0000000000 -0.9999999404
vn 0.0000000000 0.0000000000 -1.0000000000
vn 0.0000000000 0.0000000000 -1.0000000000
vn 0.0000000000 0.0000000000 -1.0000000000
vn 0.0000000000 0.0000000000 -1.0000000000
vn 0.0000000000 0.0000000000 -1.0000000000
vn 0.0000000000 0.0000000000 -1.0000000000
vn 0.0000000000 0.0000000000 -1.0000000000
vn 0.0000000000 0.0000000000 -1.0000000000
vn 0.0000000000 0.0000000000 -1.0000000000
vn 0.0000000000 0.0000000000 -1.0000000000
vn 0.0000000000 0.0000000000 -1.0000000000
vn 0.0000000000 0.0000000000 -1.0000000000
vn 0.0000000000 0.0000000000 -1.0000000000
vn 0.0000000000 0.0000000000 -0.9999999404
vn 0.0000000000 0.0000000000 -1.0000000000
vn 0.0000000000 0.0000000000 -0.9999999404
vn 0.0000000000 0.0000000000 -1.0000000000
vn 0.0000000000 0.0000000000 -0.9999999404
vn 0.0000000000 0.0000000000 -0.9999999404
vn 0.0000000000 0.0000000000 -1.0000000000
vn 0.0000000000 0.0000000000 -1.0000000000
vn 0.0000000000 0.0000000000 -1.0000000000
vn 0.0000000000 0.0000000000 -1.0000000000
vn 0.0000000000 0.0000000000 -1.0000000000
vn 0.0000000000 0.0000000000 -1.0000000000
vn 0.0000000000 0.0000000000 -0.9999999404
vn 0.0000000000 0.0000000000 -1.0000000000
vn 0.0000000000 0.0000000000 -1.0000000000
vn 0.0000000000 0.0000000000 -1.0000000000
vn 0.0000000000 0.0000000000 -1.0000000000
vn 0.0000000000 0.0000000000 -1.0000000000
vn 0.0000000000 0.0000000000 -1.0000000000
vn 0.0000000000 0.0000000000 -1.0000000000
vn 0.0000000000 0.0000000000 -1.0000000000
vn 0.0000000000 0.0000000000 -1.0000000000
vn 0.0000000000 0.0000000000 -1.0000000000
vn 0.0000000000 0.0000000000 -1.0000000000
vn 0.0000000000 0.0000000000 -1.0000000000
vn 0.0000000000 0.0000000000 -1.0000000000
vn 0.0000000000 0.0000000000 -1.0000000000
vn 0.0000000000 0.0000000000 -1.0000000000
vt -0.0000000000 0.0000000000
vt 0.0000000000 0.0000000000
vt 0.0000000000 0.0000000000
vt 0.0000000000 0.0000000000
vt -0.0000000000 0.0000000000
vt 0.0000000000 0.0000000000
vt -0.0000000000 0.0000000000
vt 0.0000000000 0.0000000000
vt 0.0000000000 0.0000000000
vt 0.0000000000 0.0000000000
vt 0.0000000000 0.0000000000
vt 0.0000000000 0.0000000000
vt 0.0000000000 0.0000000000
vt 0.0000000000 0.0000000000
vt 0.0000000000 0.0000000000
vt 0.0000000000 0.0000000000
vt 0.0000000000 0.0000000000
vt 0.0000000000 0.0000000000
vt 0.0000000000 0.0000000000
vt 0.0000000000 0.0000000000
vt 0.0000000000 0.0000000000
vt 0.0000000000 0.0000000000
vt 0.0000000000 0.0000000000
vt 0.0000000000 0.0000000000
vt 0.0000000000 0.0000000000
vt 0.0000000000 0.0000000000
vt 0.0000000000 0.0000000000
vt 0.0000000000 0.0000000000
vt 0.0000000000 0.0000000000
vt 0.0000000000 0.0000000000
vt -0.0000000000 0.0000000000
vt 0.0000000000 0.0000000000
vt -0.0000000000 0.0000000000
vt 0.0000000000 0.0000000000
vt 0.0000000000 0.0000000000
vt 0.0000000000 0.0000000000
vt 0.0000000000 0.0000000000
vt 0.0000000000 0.0000000000
vt 0.0000000000 -0.0000000000
vt 0.0000000000 0.0000000000
vt 0.0000000000 0.0000000000
vt 0.0000000000 0.0000000000
vt -0.0000000000 0.0000000000
vt 0.0000000000 0.0000000000
vt -0.0000000000 0.0000000000
vt 0.0000000000 0.0000000000
vt 0.0000000000 0.0000000000
vt 0.0000000000 0.0000000000
vt 0.0000000000 0.0000000000
vt 0.0000000000 0.0000000000
vt -0.0000000000 0.0000000000
vt 0.0000000000 0.0000000000
vt -0.0000000000 0.0000000000
vt 0.0000000000 0.0000000000
vt -0.0000000000 0.0000000000
vt 0.0000000000 0.0000000000
vt 0.0000000000 0.0000000000
vt 0.0000000000 0.0000000000
vt -nan -nan
vt 0.0000000000 0.0000000000
vt -nan -nan
vt 0.0000000000 0.0000000000
vt 0.0000000000 0.0000000000
vt 0.0000000000 0.0000000000
vt 0.0000000000 0.0000000000
vt 0.0000000000 0.0000000000
vt 0.0000000000 0.0000000000
vt 0.0000000000 0.0000000000
vt -0.0000000000 0.0000000000
vt 0.0000000000 0.0000000000
vt -0.0000000000 0.0000000000
vt 0.0000000000 0.0000000000
vt -0.0000000000 0.0000000000
vt 0.0000000000 0.0000000000
vt -0.0000000000 0.0000000000
vt 0.0000000000 0.0000000000
vt -0.0000000000 0.0000000000
vt 0.0000000000 0.0000000000
vt -0.0000000000 0.0000000000
vt 0.0000000000 0.0000000000
vt 0.0000000000 0.0000000000
vt 0.0000000000 0.0000000000
vt -nan -2.8001101017
vt 0.0000000000 0.0000000000
vt -0.0000000000 0.0000000000
vt 0.0000000000 0.0000000000
vt -0.0000000000 0.0000000000
vt 0.0000000000 0.0000000000
vt 0.0000000000 0.0000000000
vt 0.0000000000 0.0000000000
f 2/89/2 3/1/3 4/3/4 5/5/5 6/7/6 7/9/7 8/11/8 9/13/9 10/15/10 11/17/11 12/19/12 13/21/13 14/23/14 15/25/15 16/27/16 17/29/17 18/31/18 19/33/19 20/35/20 21/37/21 22/39/22 23/41/23 24/43/24 25/45/25 26/47/26 27/49/27 28/51/28 29/53/29 30/55/30 31/57/31 32/59/32 33/61/33 34/63/34 35/65/35 36/67/36 37/69/37 38/71/38 39/73/39 40/75/40 41/77/41 42/79/42 43/81/43 44/83/44 45/85/45 1/87/1
