# OBJ exported from Easy3D
v 0.8998099566 -49.9729270935 0.0000000000
v -16.3745956421 -37.0345458984 0.0000000000
v -26.6623477936 -15.3987903595 0.0000000000
v -27.9213352203 -2.4192974567 0.0000000000
v -17.2616424561 -5.2053136826 0.0000000000
v 14.1292352676 -35.9242630005 0.0000000000
v -1.8488829136 -23.4469261169 0.0000000000
v -0.9462791681 1.7650618553 0.0000000000
v -10.2616624832 4.1307225227 0.0000000000
v -24.0942478180 5.0587077141 0.0000000000
v -30.0584011078 7.4644608498 0.0000000000
v -30.0657386780 16.5213909149 0.0000000000
v -24.7593441010 16.6935844421 0.0000000000
v -15.9689130783 15.0313940048 0.0000000000
v -10.4196071625 16.9649620056 0.0000000000
v -22.0388069153 18.1083850861 0.0000000000
v -24.4207859039 22.8048038483 0.0000000000
v -19.6494750977 25.7848968506 0.0000000000
v -8.0120162964 26.1631221771 0.0000000000
v -3.9352934361 30.0702457428 0.0000000000
v -14.9978199005 28.9570941925 0.0000000000
v -24.1392173767 32.0838661194 0.0000000000
v -26.5122394562 36.2847671509 0.0000000000
v -19.3313503265 43.0891151428 0.0000000000
v -14.6002893448 41.9201812744 0.0000000000
v -7.0233011246 39.2541236877 0.0000000000
v -10.6897535324 41.2812767029 0.0000000000
v -10.4418249130 48.8781242371 0.0000000000
v -3.4928262234 49.6524085999 0.0000000000
v -0.7250024676 46.2988815308 0.0000000000
v 1.9422528744 49.9432716370 0.0000000000
v 5.5941181183 48.7005004883 0.0000000000
v 10.3334808350 44.5897254944 0.0000000000
v 6.9802989960 37.1470298767 0.0000000000
v 12.8585214615 41.0326690674 0.0000000000
v 19.2322483063 43.1406326294 0.0000000000
v 23.7175598145 38.8219184875 0.0000000000
v 22.8717784882 31.7322559357 0.0000000000
v 12.7407894135 28.7503490448 0.0000000000
v 3.0398330688 29.8753871918 0.0000000000
v 8.9665708542 25.7840900421 0.0000000000
v 17.3231620789 24.2594432831 0.0000000000
v 22.7386245728 22.5700073242 0.0000000000
v 18.1346893311 19.2294902802 0.0000000000
v 7.9842252731 17.0804977417 0.0000000000
v 13.2074289322 14.8764839172 0.0000000000
v 21.9198799133 16.5020599365 0.0000000000
v 30.7187252045 17.8797512054 0.0000000000
v 29.0481948853 8.8864736557 0.0000000000
v 20.8575401306 3.9883418083 0.0000000000
v 8.0585851669 4.2374672890 0.0000000000
v 0.3239973783 2.7510969639 0.0000000000
v -0.2181172371 -24.9203186035 0.0000000000
v 9.3422288895 -8.1248445511 0.0000000000
v 22.7136974335 -1.4899734259 0.0000000000
v 29.7117214203 -6.5756173134 0.0000000000
v 24.3625926971 -15.5883235931 0.0000000000
v 21.0319938660 -27.1032447815 0.0000000000
vn 0.0000000000 0.0000000000 1.0000000000
vn 0.0000000000 0.0000000000 1.0000000000
vn 0.0000000000 0.0000000000 1.0000000000
vn 0.0000000000 0.0000000000 1.0000000000
vn 0.0000000000 0.0000000000 1.0000000000
vn 0.0000000000 0.0000000000 1.0000000000
vn 0.0000000000 0.0000000000 1.0000000000
vn 0.0000000000 0.0000000000 1.0000000000
vn 0.0000000000 0.0000000000 1.0000000000
vn 0.0000000000 0.0000000000 1.0000000000
vn 0.0000000000 0.0000000000 1.0000000000
vn 0.0000000000 0.0000000000 1.0000000000
vn 0.0000000000 0.0000000000 1.0000000000
vn 0.0000000000 0.0000000000 1.0000000000
vn 0.0000000000 0.0000000000 0.9999999404
vn 0.0000000000 0.0000000000 1.0000000000
vn 0.0000000000 0.0000000000 1.0000000000
vn 0.0000000000 0.0000000000 1.0000000000
vn 0.0000000000 0.0000000000 1.0000000000
vn 0.0000000000 0.0000000000 1.0000000000
vn 0.0000000000 0.0000000000 1.0000000000
vn 0.0000000000 0.0000000000 1.0000000000
vn 0.0000000000 0.0000000000 1.0000000000
vn 0.0000000000 0.0000000000 1.0000000000
vn 0.0000000000 0.0000000000 1.0000000000
vn 0.0000000000 0.0000000000 1.0000000000
vn 0.0000000000 0.0000000000 1.0000000000
vn 0.0000000000 0.0000000000 1.0000000000
vn 0.0000000000 0.0000000000 1.0000000000
vn 0.0000000000 0.0000000000 1.0000000000
vn 0.0000000000 0.0000000000 1.0000000000
vn 0.0000000000 0.0000000000 1.0000000000
vn 0.0000000000 0.0000000000 1.0000000000
vn 0.0000000000 0.0000000000 1.0000000000
vn 0.0000000000 0.0000000000 0.9999999404
vn 0.0000000000 0.0000000000 1.0000000000
vn 0.0000000000 0.0000000000 1.0000000000
vn 0.0000000000 0.0000000000 0.9999999404
vn 0.0000000000 0.0000000000 1.0000000000
vn 0.0000000000 0.0000000000 0.9999999404
vn 0.0000000000 0.0000000000 1.0000000000
vn 0.0000000000 0.0000000000 0.9999999404
vn 0.0000000000 0.0000000000 1.0000000000
vn 0.0000000000 0.0000000000 1.0000000000
vn 0.0000000000 0.0000000000 1.0000000000
vn 0.0000000000 0.0000000000 1.0000000000
vn 0.0000000000 0.0000000000 0.9999999404
vn 0.0000000000 0.0000000000 1.0000000000
vn 0.0000000000 0.0000000000 1.0000000000
vn 0.0000000000 0.0000000000 1.0000000000
vn 0.0000000000 0.0000000000 1.0000000000
vn 0.0000000000 0.0000000000 1.0000000000
vn 0.0000000000 0.0000000000 1.0000000000
vn 0.0000000000 0.0000000000 1.0000000000
vn 0.0000000000 0.0000000000 1.0000000000
vn 0.0000000000 0.0000000000 1.0000000000
vn 0.0000000000 0.0000000000 1.0000000000
vn 0.0000000000 0.0000000000 1.0000000000
vt 0.0000000000 0.0000000000
vt 0.0000000000 0.0000000000
vt 0.0000000000 0.0000000000
vt 0.0000000000 0.0000000000
vt 0.0000000000 0.0000000000
vt 0.0000000000 0.0000000000
vt 0.0000000000 0.0000000000
vt 0.0000000000 0.0000000000
vt 0.0000000000 0.0000000000
vt 0.0000000000 0.0000000000
vt 0.0000000000 0.0000000000
vt 0.0000000000 0.0000000000
vt 0.0000000000 0.0000000000
vt 0.0000000000 0.0000000000
vt 0.0000000000 0.0000000000
vt 0.0000000000 0.0000000000
vt 0.0000000000 0.0000000000
vt 0.0000000000 0.0000000000
vt 0.0000000000 0.0000000000
vt 0.0000000000 0.0000000000
vt 0.0000000000 0.0000000000
vt 0.0000000000 0.0000000000
vt 0.0000000000 0.0000000000
vt 0.0000000000 0.0000000000
vt 0.0000000000 0.0000000000
vt 0.0000000000 0.0000000000
vt 0.0000000000 0.0000000000
vt 0.0000000000 0.0000000000
vt 0.0000000000 0.0000000000
vt 0.0000000000 0.0000000000
vt 0.0000000000 0.0000000000
vt 0.0000000000 0.0000000000
vt 0.0000000000 0.0000000000
vt 0.0000000000 0.0000000000
vt 0.0000000000 0.0000000000
vt 0.0000000000 0.0000000000
vt 0.0000000000 0.0000000000
vt 0.0000000000 0.0000000000
vt 0.0000000000 0.0000000000
vt 0.0000000000 0.0000000000
vt 0.0000000000 0.0000000000
vt 0.0000000000 0.0000000000
vt 0.0000000000 0.0000000000
vt 0.0000000000 0.0000000000
vt 0.0000000000 0.0000000000
vt 0.0000000000 0.0000000000
vt 0.0000000000 0.0000000000
vt 0.0000000000 0.0000000000
vt 0.0000000000 0.0000000000
vt 0.0000000000 0.0000000000
vt 0.0000000000 0.0000000000
vt 0.0000000000 0.0000000000
vt 0.0000000000 0.0000000000
vt 0.0000000000 0.0000000000
vt 0.0000000000 0.0000000000
vt 0.0000000000 0.0000000000
vt 0.0000000000 0.0000000000
vt 0.0000000000 0.0000000000
vt 0.0000000000 0.0000000000
vt 0.0000000000 0.0000000000
vt 0.0000000000 0.0000000000
vt 0.0000000000 0.0000000000
vt 0.0000000000 0.0000000000
vt 0.0000000000 0.0000000000
vt 0.0000000000 0.0000000000
vt 0.0000000000 0.0000000000
vt 0.0000000000 0.0000000000
vt 0.0000000000 0.0000000000
vt 0.0000000000 0.0000000000
vt 0.0000000000 0.0000000000
vt 0.0000000000 0.0000000000
vt 0.0000000000 0.0000000000
vt 0.0000000000 0.0000000000
vt 0.0000000000 0.0000000000
vt 0.0000000000 0.0000000000
vt 0.0000000000 0.0000000000
vt 0.0000000000 0.0000000000
vt 0.0000000000 0.0000000000
vt 0.0000000000 0.0000000000
vt 0.0000000000 0.0000000000
vt 0.0000000000 0.0000000000
vt 0.0000000000 0.0000000000
vt 0.0000000000 0.0000000000
vt 0.0000000000 0.0000000000
vt 0.0000000000 0.0000000000
vt 0.0000000000 0.0000000000
vt 0.0000000000 0.0000000000
vt 0.0000000000 0.0000000000
vt 0.0000000000 0.0000000000
vt 0.0000000000 0.0000000000
vt 0.0000000000 0.0000000000
vt 0.0000000000 0.0000000000
vt 0.0000000000 0.0000000000
vt 0.0000000000 0.0000000000
vt 0.0000000000 0.0000000000
vt 0.0000000000 0.0000000000
vt 0.0000000000 0.0000000000
vt 0.0000000000 0.0000000000
vt 0.0000000000 0.0000000000
vt 0.0000000000 0.0000000000
vt 0.0000000000 0.0000000000
vt 0.0000000000 0.0000000000
vt 0.0000000000 0.0000000000
vt 0.0000000000 0.0000000000
vt 0.0000000000 0.0000000000
vt 0.0000000000 0.0000000000
vt 0.0000000000 0.0000000000
vt 0.0000000000 0.0000000000
vt 0.0000000000 0.0000000000
vt 0.0000000000 0.0000000000
vt 0.0000000000 0.0000000000
vt 0.0000000000 0.0000000000
vt 0.0000000000 0.0000000000
vt 0.0000000000 0.0000000000
vt 0.0000000000 0.0000000000
vt 0.0000000000 0.0000000000
f 5/115/5 4/1/4 3/3/3 2/5/2 1/7/1 6/9/6 58/11/58 57/13/57 56/15/56 55/17/55 54/19/54 53/21/53 52/23/52 51/25/51 50/27/50 49/29/49 48/31/48 47/33/47 46/35/46 45/37/45 44/39/44 43/41/43 42/43/42 41/45/41 40/47/40 39/49/39 38/51/38 37/53/37 36/55/36 35/57/35 34/59/34 33/61/33 32/63/32 31/65/31 30/67/30 29/69/29 28/71/28 27/73/27 26/75/26 25/77/25 24/79/24 23/81/23 22/83/22 21/85/21 20/87/20 19/89/19 18/91/18 17/93/17 16/95/16 15/97/15 14/99/14 13/101/13 12/103/12 11/105/11 10/107/10 9/109/9 8/111/8 7/113/7
