# OBJ exported from Easy3D
v -3.2824294567 -15.0758934021 0.0000000000
v -2.6110923290 -11.3418579102 0.0000000000
v -1.9148230553 -8.2924499512 0.0000000000
v -1.0592167377 -3.1889491081 0.0000000000
v -1.2627304792 -0.0759765878 0.0000000000
v -1.7853860855 -0.8071514368 0.0000000000
v -4.4045500755 -2.1096503735 0.0000000000
v -4.0952496529 -2.2248811722 0.0000000000
v -6.1469335556 -0.5479878783 0.0000000000
v -7.3533492088 -0.3300884366 0.0000000000
v -9.2265253067 0.2104918212 0.0000000000
v -9.4019889832 0.9576887488 0.0000000000
v -10.0235776901 1.9562765360 0.0000000000
v -10.0108280182 4.2527027130 0.0000000000
v -10.6171770096 5.4823226929 0.0000000000
v -10.7569026947 7.0052247047 0.0000000000
v -10.3942451477 9.9567546844 0.0000000000
v -7.8203582764 11.3547248840 0.0000000000
v -5.9476003647 12.1129693985 0.0000000000
v -4.9691567421 13.7233104706 0.0000000000
v -3.5610067844 15.0581359863 0.0000000000
v -1.1937668324 15.0513677597 0.0000000000
v 1.6724251509 15.5582885742 0.0000000000
v 4.4034423828 15.0519208908 0.0000000000
v 5.2313923836 13.4410591125 0.0000000000
v 5.4280662537 11.8774003983 0.0000000000
v 8.6315355301 11.9315156937 0.0000000000
v 10.3297939301 10.2311334610 0.0000000000
v 10.9100952148 7.3669400215 0.0000000000
v 10.1619682312 5.4643316269 0.0000000000
v 9.8064308167 4.2881474495 0.0000000000
v 10.0460357666 2.5473167896 0.0000000000
v 10.4019393921 1.0749561787 0.0000000000
v 9.1715173721 -0.0258035604 0.0000000000
v 7.2519564629 -0.3655361831 0.0000000000
v 5.9791545868 -0.5806594491 0.0000000000
v 4.0245842934 -1.5618453026 0.0000000000
v 2.4321732521 -1.2870442867 0.0000000000
v 1.2040144205 -0.1229947805 0.0000000000
v 1.5991072655 -3.4065878391 0.0000000000
v 1.6281287670 -7.6211919785 0.0000000000
v 1.9185596704 -10.8319044113 0.0000000000
v 4.0340986252 -14.8420715332 0.0000000000
v 2.5164906979 -13.8801164627 0.0000000000
v 1.8859695196 -13.1169929504 0.0000000000
v 1.4159210920 -14.4535875320 0.0000000000
v 0.3673212826 -13.5490455627 0.0000000000
v -0.1528227776 -13.8051424026 0.0000000000
v -1.6931924820 -14.8567895889 0.0000000000
v -1.8427053690 -13.1505146027 0.0000000000
v -2.6619501114 -14.5185976028 0.0000000000
vn 0.0000000000 0.0000000000 1.0000000000
vn 0.0000000000 0.0000000000 1.0000000000
vn 0.0000000000 0.0000000000 1.0000000000
vn 0.0000000000 0.0000000000 1.0000000000
vn 0.0000000000 0.0000000000 1.0000000000
vn 0.0000000000 0.0000000000 1.0000000000
vn 0.0000000000 0.0000000000 0.9999999404
vn 0.0000000000 0.0000000000 1.0000000000
vn 0.0000000000 0.0000000000 1.0000000000
vn 0.0000000000 0.0000000000 1.0000000000
vn 0.0000000000 0.0000000000 0.9999999404
vn 0.0000000000 0.0000000000 1.0000000000
vn 0.0000000000 0.0000000000 1.0000000000
vn 0.0000000000 0.0000000000 1.0000000000
vn 0.0000000000 0.0000000000 1.0000000000
vn 0.0000000000 0.0000000000 0.9999999404
vn 0.0000000000 0.0000000000 1.0000000000
vn 0.0000000000 0.0000000000 1.0000000000
vn 0.0000000000 0.0000000000 1.0000000000
vn 0.0000000000 0.0000000000 1.0000000000
vn 0.0000000000 0.0000000000 1.0000000000
vn 0.0000000000 0.0000000000 1.0000000000
vn 0.0000000000 0.0000000000 1.0000000000
vn 0.0000000000 0.0000000000 1.0000000000
vn 0.0000000000 0.0000000000 1.0000000000
vn 0.0000000000 0.0000000000 1.0000000000
vn 0.0000000000 0.0000000000 1.0000000000
vn 0.0000000000 0.0000000000 1.0000000000
vn 0.0000000000 0.0000000000 1.0000000000
vn 0.0000000000 0.0000000000 1.0000000000
vn 0.0000000000 0.0000000000 1.0000000000
vn 0.0000000000 0.0000000000 1.0000000000
vn 0.0000000000 0.0000000000 1.0000000000
vn 0.0000000000 0.0000000000 1.0000000000
vn 0.0000000000 0.0000000000 1.0000000000
vn 0.0000000000 0.0000000000 1.0000000000
vn 0.0000000000 0.0000000000 1.0000000000
vn 0.0000000000 0.0000000000 1.0000000000
vn 0.0000000000 0.0000000000 1.0000000000
vn 0.0000000000 0.0000000000 0.9999999404
vn 0.0000000000 0.0000000000 1.0000000000
vn 0.0000000000 0.0000000000 1.0000000000
vn 0.0000000000 0.0000000000 1.0000000000
vn 0.0000000000 0.0000000000 1.0000000000
vn 0.0000000000 0.0000000000 1.0000000000
vn 0.0000000000 0.0000000000 1.0000000000
vn 0.0000000000 0.0000000000 1.0000000000
vn 0.0000000000 0.0000000000 0.9999999404
vn 0.0000000000 0.0000000000 1.0000000000
vn 0.0000000000 0.0000000000 0.9999999404
vn 0.0000000000 0.0000000000 1.0000000000
vt 0.0000000000 0.0000000000
vt 0.0000000000 0.0000000000
vt 0.0000000000 0.0000000000
vt 0.0000000000 0.0000000000
vt 0.0000000000 0.0000000000
vt 0.0000000000 0.0000000000
vt 0.0000000000 0.0000000000
vt 0.0000000000 0.0000000000
vt 0.0000000000 0.0000000000
vt 0.0000000000 0.0000000000
vt 0.0000000000 0.0000000000
vt 0.0000000000 0.0000000000
vt 0.0000000000 0.0000000000
vt 0.0000000000 0.0000000000
vt 0.0000000000 0.0000000000
vt 0.0000000000 0.0000000000
vt 0.0000000000 0.0000000000
vt 0.0000000000 0.0000000000
vt 0.0000000000 0.0000000000
vt 0.0000000000 0.0000000000
vt 0.0000000000 0.0000000000
vt 0.0000000000 0.0000000000
vt 0.0000000000 0.0000000000
vt 0.0000000000 0.0000000000
vt 0.0000000000 0.0000000000
vt 0.0000000000 0.0000000000
vt 0.0000000000 0.0000000000
vt 0.0000000000 0.0000000000
vt 0.0000000000 0.0000000000
vt 0.0000000000 0.0000000000
vt 0.0000000000 0.0000000000
vt 0.0000000000 0.0000000000
vt 0.0000000000 0.0000000000
vt 0.0000000000 0.0000000000
vt 0.0000000000 0.0000000000
vt 0.0000000000 0.0000000000
vt 0.0000000000 0.0000000000
vt 0.0000000000 0.0000000000
vt 0.0000000000 0.0000000000
vt 0.0000000000 0.0000000000
vt 0.0000000000 0.0000000000
vt 0.0000000000 0.0000000000
vt 0.0000000000 0.0000000000
vt 0.0000000000 0.0000000000
vt 0.0000000000 0.0000000000
vt 0.0000000000 0.0000000000
vt 0.0000000000 0.0000000000
vt 0.0000000000 0.0000000000
vt 0.0000000000 0.0000000000
vt 0.0000000000 0.0000000000
vt 0.0000000000 0.0000000000
vt 0.0000000000 0.0000000000
vt 0.0000000000 0.0000000000
vt 0.0000000000 0.0000000000
vt 0.0000000000 0.0000000000
vt 0.0000000000 0.0000000000
vt 0.0000000000 0.0000000000
vt 0.0000000000 0.0000000000
vt 0.0000000000 0.0000000000
vt 0.0000000000 0.0000000000
vt 0.0000000000 0.0000000000
vt 0.0000000000 0.0000000000
vt 0.0000000000 0.0000000000
vt 0.0000000000 0.0000000000
vt 0.0000000000 0.0000000000
vt 0.0000000000 0.0000000000
vt 0.0000000000 0.0000000000
vt 0.0000000000 0.0000000000
vt 0.0000000000 0.0000000000
vt 0.0000000000 0.0000000000
vt 0.0000000000 0.0000000000
vt 0.0000000000 0.0000000000
vt 0.0000000000 0.0000000000
vt 0.0000000000 0.0000000000
vt 0.0000000000 0.0000000000
vt 0.0000000000 0.0000000000
vt 0.0000000000 0.0000000000
vt 0.0000000000 0.0000000000
vt 0.0000000000 0.0000000000
vt 0.0000000000 0.0000000000
vt 0.0000000000 0.0000000000
vt 0.0000000000 0.0000000000
vt 0.0000000000 0.0000000000
vt 0.0000000000 0.0000000000
vt 0.0000000000 0.0000000000
vt 0.0000000000 0.0000000000
vt 0.0000000000 0.0000000000
vt 0.0000000000 0.0000000000
vt 0.0000000000 0.0000000000
vt 0.0000000000 0.0000000000
vt 0.0000000000 0.0000000000
vt 0.0000000000 0.0000000000
vt 0.0000000000 0.0000000000
vt 0.0000000000 0.0000000000
vt 0.0000000000 0.0000000000
vt 0.0000000000 0.0000000000
vt 0.0000000000 0.0000000000
vt 0.0000000000 0.0000000000
vt 0.0000000000 0.0000000000
vt 0.0000000000 0.0000000000
vt 0.0000000000 0.0000000000
vt 0.0000000000 0.0000000000
f 1/101/1 51/1/51 50/3/50 49/5/49 48/7/48 47/9/47 46/11/46 45/13/45 44/15/44 43/17/43 42/19/42 41/21/41 40/23/40 39/25/39 38/27/38 37/29/37 36/31/36 35/33/35 34/35/34 33/37/33 32/39/32 31/41/31 30/43/30 29/45/29 28/47/28 27/49/27 26/51/26 25/53/25 24/55/24 23/57/23 22/59/22 21/61/21 20/63/20 19/65/19 18/67/18 17/69/17 16/71/16 15/73/15 14/75/14 13/77/13 12/79/12 11/81/11 10/83/10 9/85/9 8/87/8 7/89/7 6/91/6 5/93/5 4/95/4 3/97/3 2/99/2
